<svg width="1290" height="25" viewBox="0 0 1290 25" fill="none" xmlns="http://www.w3.org/2000/svg">
<path d="M350.381 24.7976H348.879C348.879 24.7976 345.571 13.842 351.79 5.18258C352.37 9.1187 354.123 15.5739 354.123 15.5739C354.123 15.5739 357.034 11.0474 356.455 6.78327C356.455 6.78327 361.119 12.9105 361.725 18.2374C361.145 13.4484 362.898 8.38393 364.65 3.80491C365.32 9.59515 367.312 15.1559 370.474 20.0611C368.142 15.259 370.474 10.457 372.226 7.53114C372.226 7.53114 372.806 14.1963 375.138 16.3218C374.558 11.7952 375.718 8.33148 379.802 4.32976C379.094 9.06701 379.495 13.9033 380.975 18.4604C380.975 18.3423 381.555 13.5534 386.245 7.26872C385.494 11.2048 387.168 14.6424 389.157 18.3423C388.982 13.6054 390.421 8.94865 393.242 5.13008C393.821 9.06621 395.574 15.5215 395.574 15.5215C395.574 15.5215 398.486 10.9949 397.906 6.73078C397.906 6.73078 402.57 12.858 403.176 18.1849C402.596 13.396 404.349 8.33148 406.088 3.75246C406.681 9.07934 409 16.0069 411.925 20.0086C409.593 15.2066 411.925 10.4045 413.664 7.47865C413.664 7.47865 414.257 14.1438 416.589 16.2693C415.996 11.7428 417.169 4.55277 421.253 0.524808C420.521 6.49711 420.915 12.553 422.413 18.3817C423.973 16.6775 424.975 14.5416 425.288 12.2571C425.601 9.97252 425.21 7.6472 424.165 5.58931C427.062 7.9121 429.327 10.9209 430.753 14.3406C431.265 10.9805 432.585 7.79353 434.601 5.05136C435.194 8.98749 436.933 15.4427 436.933 15.4427C436.933 15.4427 439.858 10.9162 439.265 6.65206C439.265 6.65206 443.929 12.7793 444.535 18.1062C443.942 13.3172 445.695 8.25276 447.447 3.67374C448.117 9.46398 450.109 15.0247 453.271 19.9299C450.939 15.1278 453.271 10.3258 455.023 7.39993C455.023 7.39993 455.603 14.0651 457.935 16.1906C457.355 11.664 460.847 7.13752 464.931 3.1358C464.352 6.86199 462.02 12.7268 463.772 18.3292C463.772 18.2111 464.352 13.4222 469.042 7.1375C468.291 11.0736 469.965 14.5112 471.954 18.2111C471.779 13.4742 473.218 8.81744 476.039 4.99887C476.618 8.93499 478.371 15.3903 478.371 15.3903C478.371 15.3903 481.283 10.8637 480.703 6.59956C480.703 6.59956 485.367 12.7268 485.973 18.0537C485.393 13.2647 487.146 8.20027 488.885 3.62125C489.566 9.41098 491.562 14.9702 494.722 19.8774C492.39 15.0753 494.722 10.2733 496.474 7.34744C496.474 7.34744 497.054 14.0126 499.386 16.1381C499.032 13.5866 499.268 10.9881 500.076 8.54132C500.885 6.09451 502.244 3.86413 504.05 2.02055C503.336 7.46182 503.731 12.9906 505.21 18.2767C506.773 16.5744 507.778 14.4382 508.091 12.1528C508.404 9.86745 508.01 7.54132 506.962 5.48432C509.483 7.27255 511.806 9.32206 513.893 11.5984C514.587 9.20933 515.692 6.95852 517.16 4.94642C517.753 8.88254 519.493 15.3378 519.493 15.3378C519.493 15.3378 522.418 10.8112 521.825 6.54711C521.825 6.54711 526.489 12.6743 527.095 18.0012C526.502 13.2123 528.254 8.14777 530.007 3.56875C530.677 9.35899 532.669 14.9197 535.831 19.825C533.498 15.0229 535.831 10.2208 537.583 7.29494C537.583 7.29494 538.163 13.9601 540.495 16.0856C539.915 11.5591 541.088 8.09528 545.159 4.09356C544.451 8.83081 544.852 13.6671 546.332 18.2243C546.332 18.1062 546.911 13.3172 551.602 7.03256C550.996 10.1421 551.958 13.0023 553.381 15.9282C553.651 11.9425 555.054 8.11551 557.426 4.89393C558.019 8.83005 559.758 15.2853 559.758 15.2853C559.758 15.2853 562.683 10.7587 562.09 6.49462C562.09 6.49462 566.754 12.6218 567.36 17.9487C566.767 13.1598 568.52 8.09528 570.272 3.51626C570.942 9.3065 572.935 14.8672 576.096 19.7725C573.764 14.9704 576.096 10.1683 577.848 7.24249C577.848 7.24249 578.428 13.9076 580.76 16.0331C580.18 11.5066 581.353 8.04283 585.424 4.04111C584.716 8.77836 585.117 13.6146 586.597 18.1718C586.597 18.0537 587.177 13.2647 591.867 6.98007C591.195 10.4701 592.474 13.6452 594.186 16.9385C594.258 12.5803 595.69 8.35237 598.284 4.84143C598.864 8.77756 600.616 15.2328 600.616 15.2328C600.616 15.2328 603.528 10.7063 602.948 6.44212C602.948 6.44212 607.613 12.5694 608.219 17.8963C607.639 13.1073 609.378 8.04283 611.131 3.46381C611.8 9.2563 613.797 14.8182 616.967 19.72C614.635 14.9179 616.967 10.1158 618.707 7.19C618.707 7.19 619.3 13.8551 621.632 15.9806C621.039 11.4541 622.211 7.99034 626.296 3.98862C625.575 8.7246 625.972 13.5626 627.455 18.1193C629.015 16.4151 630.018 14.2792 630.331 11.9946C630.644 9.71009 630.252 7.38478 629.208 5.32688C631.872 7.42526 633.999 10.1232 635.414 13.1991C636.015 10.1678 637.279 7.30552 639.116 4.81521C639.696 8.75133 641.448 15.2065 641.448 15.2065C641.448 15.2065 644.36 10.68 643.78 6.4159C643.78 6.4159 648.444 12.5431 649.051 17.87C648.471 13.081 650.223 8.01656 651.976 3.43754C652.646 9.22778 654.638 14.7885 657.799 19.6937C655.467 14.8917 657.799 10.0896 659.552 7.16373C659.552 7.16373 660.131 13.8289 662.464 15.9544C662.109 13.4029 662.345 10.8045 663.154 8.35765C663.962 5.91085 665.321 3.68042 667.128 1.83685C666.414 7.27812 666.808 12.8069 668.287 18.0931C668.287 17.975 668.88 13.186 673.558 6.90135C672.873 10.3914 674.164 13.5665 675.877 16.8597C675.944 12.503 677.372 8.27523 679.961 4.76271C680.554 8.69884 682.293 15.1541 682.293 15.1541C682.293 15.1541 685.218 10.6275 684.625 6.36341C684.625 6.36341 689.29 12.4906 689.896 17.8175C689.303 13.0286 691.055 7.96411 692.808 3.38509C693.478 9.17533 695.47 14.736 698.631 19.6413C696.299 14.8392 698.631 10.0371 700.384 7.11128C700.384 7.11128 700.963 13.7764 703.296 15.9019C702.953 13.5125 703.199 11.076 704.012 8.80198C704.824 6.52797 706.179 4.48448 707.96 2.84715C707.248 7.93663 707.648 13.1192 709.132 18.0406C709.132 17.9225 709.712 13.1335 714.403 6.84885C713.731 10.3389 715.009 13.514 716.722 16.8072C716.788 12.4482 718.221 8.21871 720.819 4.71022C721.399 8.64634 723.152 15.1016 723.152 15.1016C723.152 15.1016 726.063 10.575 725.484 6.31091C725.484 6.31091 730.148 12.4382 730.754 17.765C730.174 12.9761 731.913 7.91162 733.666 3.33259C734.335 9.12509 736.332 14.687 739.503 19.5888C737.171 14.7867 739.503 9.98464 741.242 7.05878C741.242 7.05878 741.835 13.724 744.167 15.8495C743.574 11.3229 744.747 4.13295 748.831 0.104986C748.099 6.07729 748.492 12.1331 749.991 17.9618C751.55 16.2576 752.553 14.1217 752.866 11.8372C753.179 9.55265 752.787 7.22734 751.743 5.16944C754.408 7.26782 756.535 9.96577 757.949 13.0417C758.55 10.0104 759.814 7.14808 761.651 4.65777C762.231 8.59389 763.983 15.0491 763.983 15.0491C763.983 15.0491 766.895 10.5226 766.316 6.25846C766.316 6.25846 770.98 12.3857 771.586 17.7125C771.006 12.9236 772.759 7.85912 774.498 3.2801C775.179 9.06984 777.175 14.6291 780.335 19.5363C778.003 14.7342 780.335 9.93214 782.087 7.00629C782.087 7.00629 782.667 13.6715 784.999 15.797C784.419 11.2704 785.579 7.80663 789.663 3.80491C788.956 8.54134 789.353 13.3763 790.823 17.9356C790.823 17.8175 791.416 13.0286 796.093 6.74391C795.342 10.68 797.015 14.1176 798.992 17.8175C798.828 13.0801 800.272 8.4259 803.089 4.60528C803.669 8.5414 805.422 14.9966 805.422 14.9966C805.422 14.9966 808.333 10.4701 807.754 6.20597C807.754 6.20597 812.418 12.3332 813.024 17.6601C812.444 12.8711 814.183 7.80663 815.936 3.22761C816.605 9.0201 818.602 14.582 821.773 19.4838C819.441 14.6817 821.773 9.87969 823.512 6.95384C823.512 6.95384 824.105 13.619 826.424 15.7445C825.844 11.2179 827.017 4.02796 831.088 0C830.368 5.97332 830.766 12.0278 832.261 17.8569C833.82 16.1527 834.823 14.0168 835.136 11.7322C835.449 9.44771 835.057 7.12239 834.013 5.0645C836.909 7.38729 839.174 10.3961 840.601 13.8158C841.106 10.454 842.427 7.26562 844.448 4.52656C845.028 8.46268 846.781 14.9179 846.781 14.9179C846.781 14.9179 849.692 10.3914 849.113 6.12725C849.113 6.12725 853.777 12.2545 854.383 17.5813C853.803 12.7924 855.556 7.72791 857.308 3.14889C857.978 8.93913 859.97 14.4998 863.132 19.4051C860.799 14.603 863.132 9.80097 864.884 6.87512C864.884 6.87512 865.464 13.5403 867.796 15.6658C867.216 11.1392 870.708 6.61271 874.792 2.61099C874.213 6.33718 871.88 12.202 873.633 17.8044C873.633 17.6863 874.212 12.8974 878.903 6.6127C878.152 10.5488 879.826 13.9864 881.815 17.6863C881.64 12.9493 883.079 8.29263 885.9 4.47406C886.479 8.41019 888.232 14.8654 888.232 14.8654C888.232 14.8654 891.143 10.3389 890.564 6.07475C890.564 6.07475 895.228 12.202 895.834 17.5289C895.254 12.7399 896.994 7.67546 898.746 3.09644C899.415 8.88893 901.412 14.4508 904.583 19.3526C902.251 14.5505 904.583 9.74848 906.322 6.82263C906.322 6.82263 906.915 13.4878 909.247 15.6133C908.89 13.0617 909.124 10.4624 909.933 8.01511C910.741 5.56782 912.102 3.33763 913.911 1.49575C913.184 6.93662 913.579 12.468 915.071 17.7519C916.63 16.0477 917.633 13.9118 917.946 11.6273C918.259 9.34272 917.868 7.01741 916.823 4.95951C922.094 8.68571 925.572 17.4764 920.592 24.0366L350.381 24.7976Z" fill="#E2E7D6"/>
<path d="M1472.38 24.7976H1470.88C1470.88 24.7976 1467.57 13.842 1473.79 5.18258C1474.37 9.1187 1476.12 15.5739 1476.12 15.5739C1476.12 15.5739 1479.03 11.0474 1478.45 6.78327C1478.45 6.78327 1483.12 12.9105 1483.73 18.2374C1483.15 13.4484 1484.9 8.38393 1486.65 3.80491C1487.32 9.59515 1489.31 15.1559 1492.47 20.0611C1490.14 15.259 1492.47 10.457 1494.23 7.53114C1494.23 7.53114 1494.81 14.1963 1497.14 16.3218C1496.56 11.7952 1497.72 8.33148 1501.8 4.32976C1501.09 9.06701 1501.5 13.9033 1502.98 18.4604C1502.98 18.3423 1503.55 13.5534 1508.25 7.26872C1507.49 11.2048 1509.17 14.6424 1511.16 18.3423C1510.98 13.6054 1512.42 8.94865 1515.24 5.13008C1515.82 9.06621 1517.57 15.5215 1517.57 15.5215C1517.57 15.5215 1520.49 10.9949 1519.91 6.73078C1519.91 6.73078 1524.57 12.858 1525.18 18.1849C1524.6 13.396 1526.35 8.33148 1528.09 3.75246C1528.68 9.07934 1531 16.0069 1533.93 20.0086C1531.59 15.2066 1533.93 10.4045 1535.66 7.47865C1535.66 7.47865 1536.26 14.1438 1538.59 16.2693C1538 11.7428 1539.17 4.55277 1543.25 0.524808C1542.52 6.49711 1542.91 12.553 1544.41 18.3817C1545.97 16.6775 1546.98 14.5416 1547.29 12.2571C1547.6 9.97252 1547.21 7.6472 1546.17 5.58931C1549.06 7.9121 1551.33 10.9209 1552.75 14.3406C1553.26 10.9805 1554.58 7.79353 1556.6 5.05136C1557.19 8.98749 1558.93 15.4427 1558.93 15.4427C1558.93 15.4427 1561.86 10.9162 1561.26 6.65206C1561.26 6.65206 1565.93 12.7793 1566.54 18.1062C1565.94 13.3172 1567.69 8.25276 1569.45 3.67374C1570.12 9.46398 1572.11 15.0247 1575.27 19.9299C1572.94 15.1278 1575.27 10.3258 1577.02 7.39993C1577.02 7.39993 1577.6 14.0651 1579.94 16.1906C1579.36 11.664 1582.85 7.13752 1586.93 3.1358C1586.35 6.86199 1584.02 12.7268 1585.77 18.3292C1585.77 18.2111 1586.35 13.4222 1591.04 7.1375C1590.29 11.0736 1591.96 14.5112 1593.95 18.2111C1593.78 13.4742 1595.22 8.81744 1598.04 4.99887C1598.62 8.93499 1600.37 15.3903 1600.37 15.3903C1600.37 15.3903 1603.28 10.8637 1602.7 6.59956C1602.7 6.59956 1607.37 12.7268 1607.97 18.0537C1607.39 13.2647 1609.15 8.20027 1610.89 3.62125C1611.57 9.41098 1613.56 14.9702 1616.72 19.8774C1614.39 15.0753 1616.72 10.2733 1618.47 7.34744C1618.47 7.34744 1619.05 14.0126 1621.39 16.1381C1621.03 13.5866 1621.27 10.9881 1622.08 8.54132C1622.88 6.09451 1624.24 3.86413 1626.05 2.02055C1625.34 7.46182 1625.73 12.9906 1627.21 18.2767C1628.77 16.5744 1629.78 14.4382 1630.09 12.1528C1630.4 9.86745 1630.01 7.54132 1628.96 5.48432C1631.48 7.27255 1633.81 9.32206 1635.89 11.5984C1636.59 9.20933 1637.69 6.95852 1639.16 4.94642C1639.75 8.88254 1641.49 15.3378 1641.49 15.3378C1641.49 15.3378 1644.42 10.8112 1643.82 6.54711C1643.82 6.54711 1648.49 12.6743 1649.1 18.0012C1648.5 13.2123 1650.25 8.14777 1652.01 3.56875C1652.68 9.35899 1654.67 14.9197 1657.83 19.825C1655.5 15.0229 1657.83 10.2208 1659.58 7.29494C1659.58 7.29494 1660.16 13.9601 1662.49 16.0856C1661.92 11.5591 1663.09 8.09528 1667.16 4.09356C1666.45 8.83081 1666.85 13.6671 1668.33 18.2243C1668.33 18.1062 1668.91 13.3172 1673.6 7.03256C1673 10.1421 1673.96 13.0023 1675.38 15.9282C1675.65 11.9425 1677.05 8.11551 1679.43 4.89393C1680.02 8.83005 1681.76 15.2853 1681.76 15.2853C1681.76 15.2853 1684.68 10.7587 1684.09 6.49462C1684.09 6.49462 1688.75 12.6218 1689.36 17.9487C1688.77 13.1598 1690.52 8.09528 1692.27 3.51626C1692.94 9.3065 1694.93 14.8672 1698.1 19.7725C1695.76 14.9704 1698.1 10.1683 1699.85 7.24249C1699.85 7.24249 1700.43 13.9076 1702.76 16.0331C1702.18 11.5066 1703.35 8.04283 1707.42 4.04111C1706.72 8.77836 1707.12 13.6146 1708.6 18.1718C1708.6 18.0537 1709.18 13.2647 1713.87 6.98007C1713.2 10.4701 1714.47 13.6452 1716.19 16.9385C1716.26 12.5803 1717.69 8.35237 1720.28 4.84143C1720.86 8.77756 1722.62 15.2328 1722.62 15.2328C1722.62 15.2328 1725.53 10.7063 1724.95 6.44212C1724.95 6.44212 1729.61 12.5694 1730.22 17.8963C1729.64 13.1073 1731.38 8.04283 1733.13 3.46381C1733.8 9.2563 1735.8 14.8182 1738.97 19.72C1736.64 14.9179 1738.97 10.1158 1740.71 7.19C1740.71 7.19 1741.3 13.8551 1743.63 15.9806C1743.04 11.4541 1744.21 7.99034 1748.3 3.98862C1747.58 8.7246 1747.97 13.5626 1749.46 18.1193C1751.02 16.4151 1752.02 14.2792 1752.33 11.9946C1752.64 9.71009 1752.25 7.38478 1751.21 5.32688C1753.87 7.42526 1756 10.1232 1757.41 13.1991C1758.02 10.1678 1759.28 7.30552 1761.12 4.81521C1761.7 8.75133 1763.45 15.2065 1763.45 15.2065C1763.45 15.2065 1766.36 10.68 1765.78 6.4159C1765.78 6.4159 1770.44 12.5431 1771.05 17.87C1770.47 13.081 1772.22 8.01656 1773.98 3.43754C1774.65 9.22778 1776.64 14.7885 1779.8 19.6937C1777.47 14.8917 1779.8 10.0896 1781.55 7.16373C1781.55 7.16373 1782.13 13.8289 1784.46 15.9544C1784.11 13.4029 1784.35 10.8045 1785.15 8.35765C1785.96 5.91085 1787.32 3.68042 1789.13 1.83685C1788.41 7.27812 1788.81 12.8069 1790.29 18.0931C1790.29 17.975 1790.88 13.186 1795.56 6.90135C1794.87 10.3914 1796.16 13.5665 1797.88 16.8597C1797.94 12.503 1799.37 8.27523 1801.96 4.76271C1802.55 8.69884 1804.29 15.1541 1804.29 15.1541C1804.29 15.1541 1807.22 10.6275 1806.63 6.36341C1806.63 6.36341 1811.29 12.4906 1811.9 17.8175C1811.3 13.0286 1813.06 7.96411 1814.81 3.38509C1815.48 9.17533 1817.47 14.736 1820.63 19.6413C1818.3 14.8392 1820.63 10.0371 1822.38 7.11128C1822.38 7.11128 1822.96 13.7764 1825.3 15.9019C1824.95 13.5125 1825.2 11.076 1826.01 8.80198C1826.82 6.52797 1828.18 4.48448 1829.96 2.84715C1829.25 7.93663 1829.65 13.1192 1831.13 18.0406C1831.13 17.9225 1831.71 13.1335 1836.4 6.84885C1835.73 10.3389 1837.01 13.514 1838.72 16.8072C1838.79 12.4482 1840.22 8.21871 1842.82 4.71022C1843.4 8.64634 1845.15 15.1016 1845.15 15.1016C1845.15 15.1016 1848.06 10.575 1847.48 6.31091C1847.48 6.31091 1852.15 12.4382 1852.75 17.765C1852.17 12.9761 1853.91 7.91162 1855.67 3.33259C1856.34 9.12509 1858.33 14.687 1861.5 19.5888C1859.17 14.7867 1861.5 9.98464 1863.24 7.05878C1863.24 7.05878 1863.84 13.724 1866.17 15.8495C1865.57 11.3229 1866.75 4.13295 1870.83 0.104986C1870.1 6.07729 1870.49 12.1331 1871.99 17.9618C1873.55 16.2576 1874.55 14.1217 1874.87 11.8372C1875.18 9.55265 1874.79 7.22734 1873.74 5.16944C1876.41 7.26782 1878.53 9.96577 1879.95 13.0417C1880.55 10.0104 1881.81 7.14808 1883.65 4.65777C1884.23 8.59389 1885.98 15.0491 1885.98 15.0491C1885.98 15.0491 1888.9 10.5226 1888.32 6.25846C1888.32 6.25846 1892.98 12.3857 1893.59 17.7125C1893.01 12.9236 1894.76 7.85912 1896.5 3.2801C1897.18 9.06984 1899.17 14.6291 1902.33 19.5363C1900 14.7342 1902.33 9.93214 1904.09 7.00629C1904.09 7.00629 1904.67 13.6715 1907 15.797C1906.42 11.2704 1907.58 7.80663 1911.66 3.80491C1910.96 8.54134 1911.35 13.3763 1912.82 17.9356C1912.82 17.8175 1913.42 13.0286 1918.09 6.74391C1917.34 10.68 1919.02 14.1176 1920.99 17.8175C1920.83 13.0801 1922.27 8.4259 1925.09 4.60528C1925.67 8.5414 1927.42 14.9966 1927.42 14.9966C1927.42 14.9966 1930.33 10.4701 1929.75 6.20597C1929.75 6.20597 1934.42 12.3332 1935.02 17.6601C1934.44 12.8711 1936.18 7.80663 1937.94 3.22761C1938.61 9.0201 1940.6 14.582 1943.77 19.4838C1941.44 14.6817 1943.77 9.87969 1945.51 6.95384C1945.51 6.95384 1946.1 13.619 1948.42 15.7445C1947.84 11.2179 1949.02 4.02796 1953.09 0C1952.37 5.97332 1952.77 12.0278 1954.26 17.8569C1955.82 16.1527 1956.82 14.0168 1957.14 11.7322C1957.45 9.44771 1957.06 7.12239 1956.01 5.0645C1958.91 7.38729 1961.17 10.3961 1962.6 13.8158C1963.11 10.454 1964.43 7.26562 1966.45 4.52656C1967.03 8.46268 1968.78 14.9179 1968.78 14.9179C1968.78 14.9179 1971.69 10.3914 1971.11 6.12725C1971.11 6.12725 1975.78 12.2545 1976.38 17.5813C1975.8 12.7924 1977.56 7.72791 1979.31 3.14889C1979.98 8.93913 1981.97 14.4998 1985.13 19.4051C1982.8 14.603 1985.13 9.80097 1986.88 6.87512C1986.88 6.87512 1987.46 13.5403 1989.8 15.6658C1989.22 11.1392 1992.71 6.61271 1996.79 2.61099C1996.21 6.33718 1993.88 12.202 1995.63 17.8044C1995.63 17.6863 1996.21 12.8974 2000.9 6.6127C2000.15 10.5488 2001.83 13.9864 2003.82 17.6863C2003.64 12.9493 2005.08 8.29263 2007.9 4.47406C2008.48 8.41019 2010.23 14.8654 2010.23 14.8654C2010.23 14.8654 2013.14 10.3389 2012.56 6.07475C2012.56 6.07475 2017.23 12.202 2017.83 17.5289C2017.25 12.7399 2018.99 7.67546 2020.75 3.09644C2021.42 8.88893 2023.41 14.4508 2026.58 19.3526C2024.25 14.5505 2026.58 9.74848 2028.32 6.82263C2028.32 6.82263 2028.92 13.4878 2031.25 15.6133C2030.89 13.0617 2031.12 10.4624 2031.93 8.01511C2032.74 5.56782 2034.1 3.33763 2035.91 1.49575C2035.18 6.93662 2035.58 12.468 2037.07 17.7519C2038.63 16.0477 2039.63 13.9118 2039.95 11.6273C2040.26 9.34272 2039.87 7.01741 2038.82 4.95951C2044.09 8.68571 2047.57 17.4764 2042.59 24.0366L1472.38 24.7976Z" fill="#E2E7D6"/>
<path d="M-210.619 24.7976H-212.121C-212.121 24.7976 -215.429 13.842 -209.21 5.18258C-208.63 9.1187 -206.878 15.5739 -206.878 15.5739C-206.878 15.5739 -203.966 11.0474 -204.545 6.78327C-204.545 6.78327 -199.881 12.9105 -199.275 18.2374C-199.855 13.4484 -198.102 8.38393 -196.35 3.80491C-195.68 9.59515 -193.688 15.1559 -190.526 20.0611C-192.858 15.259 -190.526 10.457 -188.774 7.53114C-188.774 7.53114 -188.194 14.1963 -185.862 16.3218C-186.442 11.7952 -185.282 8.33148 -181.198 4.32976C-181.906 9.06701 -181.505 13.9033 -180.025 18.4604C-180.025 18.3423 -179.445 13.5534 -174.755 7.26872C-175.506 11.2048 -173.833 14.6424 -171.843 18.3423C-172.018 13.6054 -170.579 8.94865 -167.758 5.13008C-167.179 9.06621 -165.426 15.5215 -165.426 15.5215C-165.426 15.5215 -162.514 10.9949 -163.094 6.73078C-163.094 6.73078 -158.43 12.858 -157.824 18.1849C-158.404 13.396 -156.651 8.33148 -154.912 3.75246C-154.319 9.07934 -152 16.0069 -149.075 20.0086C-151.407 15.2066 -149.075 10.4045 -147.336 7.47865C-147.336 7.47865 -146.743 14.1438 -144.411 16.2693C-145.004 11.7428 -143.831 4.55277 -139.747 0.524808C-140.479 6.49711 -140.085 12.553 -138.587 18.3817C-137.028 16.6775 -136.025 14.5416 -135.712 12.2571C-135.399 9.97252 -135.79 7.6472 -136.835 5.58931C-133.939 7.9121 -131.674 10.9209 -130.247 14.3406C-129.735 10.9805 -128.415 7.79353 -126.399 5.05136C-125.807 8.98749 -124.067 15.4427 -124.067 15.4427C-124.067 15.4427 -121.142 10.9162 -121.735 6.65206C-121.735 6.65206 -117.071 12.7793 -116.465 18.1062C-117.058 13.3172 -115.305 8.25276 -113.553 3.67374C-112.883 9.46398 -110.891 15.0247 -107.729 19.9299C-110.061 15.1278 -107.729 10.3258 -105.977 7.39993C-105.977 7.39993 -105.397 14.0651 -103.065 16.1906C-103.645 11.664 -100.153 7.13752 -96.0687 3.1358C-96.6484 6.86199 -98.9806 12.7268 -97.2282 18.3292C-97.2282 18.2111 -96.6484 13.4222 -91.9578 7.1375C-92.7088 11.0736 -91.0355 14.5112 -89.046 18.2111C-89.2215 13.4742 -87.7819 8.81744 -84.9615 4.99887C-84.3817 8.93499 -82.6293 15.3903 -82.6293 15.3903C-82.6293 15.3903 -79.7175 10.8637 -80.2972 6.59956C-80.2972 6.59956 -75.633 12.7268 -75.0269 18.0537C-75.6066 13.2647 -73.8542 8.20027 -72.115 3.62125C-71.434 9.41098 -69.4379 14.9702 -66.2781 19.8774C-68.6102 15.0753 -66.2781 10.2733 -64.5257 7.34744C-64.5257 7.34744 -63.946 14.0126 -61.6139 16.1381C-61.9683 13.5866 -61.7323 10.9881 -60.9239 8.54132C-60.1155 6.09451 -58.7561 3.86413 -56.9496 2.02055C-57.6637 7.46182 -57.2694 12.9906 -55.7901 18.2767C-54.2272 16.5744 -53.2223 14.4382 -52.9092 12.1528C-52.5962 9.86745 -52.9898 7.54132 -54.0378 5.48432C-51.517 7.27255 -49.1938 9.32206 -47.1072 11.5984C-46.4133 9.20933 -45.3076 6.95852 -43.8397 4.94642C-43.2467 8.88254 -41.5075 15.3378 -41.5075 15.3378C-41.5075 15.3378 -38.5825 10.8112 -39.1754 6.54711C-39.1754 6.54711 -34.5112 12.6743 -33.9051 18.0012C-34.498 13.2123 -32.7456 8.14777 -30.9932 3.56875C-30.323 9.35899 -28.3309 14.9197 -25.1695 19.825C-27.5016 15.0229 -25.1695 10.2208 -23.4171 7.29494C-23.4171 7.29494 -22.8374 13.9601 -20.5052 16.0856C-21.085 11.5591 -19.9123 8.09528 -15.841 4.09356C-16.5496 8.83081 -16.1482 13.6671 -14.6683 18.2243C-14.6683 18.1062 -14.0886 13.3172 -9.398 7.03256C-10.0041 10.1421 -9.04224 13.0023 -7.61925 15.9282C-7.34924 11.9425 -5.94634 8.11551 -3.57429 4.89393C-2.98137 8.83005 -1.24215 15.2853 -1.24215 15.2853C-1.24215 15.2853 1.68289 10.7587 1.08998 6.49462C1.08998 6.49462 5.75423 12.6218 6.36032 17.9487C5.7674 13.1598 7.51978 8.09528 9.27217 3.51626C9.94234 9.3065 11.9344 14.8672 15.0959 19.7725C12.7638 14.9704 15.0959 10.1683 16.8483 7.24249C16.8483 7.24249 17.428 13.9076 19.7601 16.0331C19.1804 11.5066 20.3531 8.04283 24.4244 4.04111C23.7158 8.77836 24.1171 13.6146 25.597 18.1718C25.597 18.0537 26.1768 13.2647 30.8674 6.98007C30.1954 10.4701 31.4734 13.6452 33.1863 16.9385C33.2579 12.5803 34.6901 8.35237 37.284 4.84143C37.8637 8.77756 39.6161 15.2328 39.6161 15.2328C39.6161 15.2328 42.528 10.7063 41.9483 6.44212C41.9483 6.44212 46.6125 12.5694 47.2186 17.8963C46.6389 13.1073 48.378 8.04283 50.1304 3.46381C50.7995 9.2563 52.7966 14.8182 55.9673 19.72C53.6352 14.9179 55.9673 10.1158 57.7065 7.19C57.7065 7.19 58.2995 13.8551 60.6316 15.9806C60.0387 11.4541 61.2113 7.99034 65.2958 3.98862C64.5753 8.7246 64.9723 13.5626 66.4553 18.1193C68.0149 16.4151 69.0176 14.2792 69.3306 11.9946C69.6436 9.71009 69.252 7.38478 68.2077 5.32688C70.8725 7.42526 72.9993 10.1232 74.4135 13.1991C75.015 10.1678 76.2791 7.30552 78.1159 4.81521C78.6957 8.75133 80.4481 15.2065 80.4481 15.2065C80.4481 15.2065 83.3599 10.68 82.7802 6.4159C82.7802 6.4159 87.4445 12.5431 88.0505 17.87C87.4708 13.081 89.2232 8.01656 90.9756 3.43754C91.6457 9.22778 93.6378 14.7885 96.7993 19.6937C94.4671 14.8917 96.7993 10.0896 98.5517 7.16373C98.5517 7.16373 99.1314 13.8289 101.464 15.9544C101.109 13.4029 101.345 10.8045 102.153 8.35765C102.962 5.91085 104.321 3.68042 106.128 1.83685C105.414 7.27812 105.808 12.8069 107.287 18.0931C107.287 17.975 107.88 13.186 112.558 6.90135C111.872 10.3914 113.164 13.5665 114.877 16.8597C114.944 12.503 116.372 8.27523 118.961 4.76271C119.554 8.69884 121.293 15.1541 121.293 15.1541C121.293 15.1541 124.218 10.6275 123.625 6.36341C123.625 6.36341 128.29 12.4906 128.896 17.8175C128.303 13.0286 130.055 7.96411 131.808 3.38509C132.478 9.17533 134.47 14.736 137.631 19.6413C135.299 14.8392 137.631 10.0371 139.384 7.11128C139.384 7.11128 139.963 13.7764 142.295 15.9019C141.953 13.5125 142.199 11.076 143.012 8.80198C143.824 6.52797 145.179 4.48448 146.96 2.84715C146.248 7.93663 146.648 13.1192 148.132 18.0406C148.132 17.9225 148.712 13.1335 153.403 6.84885C152.731 10.3389 154.009 13.514 155.722 16.8072C155.788 12.4482 157.221 8.21871 159.819 4.71022C160.399 8.64634 162.151 15.1016 162.151 15.1016C162.151 15.1016 165.063 10.575 164.484 6.31091C164.484 6.31091 169.148 12.4382 169.754 17.765C169.174 12.9761 170.913 7.91162 172.666 3.33259C173.335 9.12509 175.332 14.687 178.503 19.5888C176.171 14.7867 178.503 9.98464 180.242 7.05878C180.242 7.05878 180.835 13.724 183.167 15.8495C182.574 11.3229 183.747 4.13295 187.831 0.104986C187.099 6.07729 187.492 12.1331 188.991 17.9618C190.55 16.2576 191.553 14.1217 191.866 11.8372C192.179 9.55265 191.787 7.22734 190.743 5.16944C193.408 7.26782 195.535 9.96577 196.949 13.0417C197.55 10.0104 198.814 7.14808 200.651 4.65777C201.231 8.59389 202.983 15.0491 202.983 15.0491C202.983 15.0491 205.895 10.5226 205.316 6.25846C205.316 6.25846 209.98 12.3857 210.586 17.7125C210.006 12.9236 211.759 7.85912 213.498 3.2801C214.179 9.06984 216.175 14.6291 219.335 19.5363C217.002 14.7342 219.335 9.93214 221.087 7.00629C221.087 7.00629 221.667 13.6715 223.999 15.797C223.419 11.2704 224.579 7.80663 228.663 3.80491C227.956 8.54134 228.353 13.3763 229.823 17.9356C229.823 17.8175 230.416 13.0286 235.093 6.74391C234.342 10.68 236.015 14.1176 237.992 17.8175C237.828 13.0801 239.272 8.4259 242.089 4.60528C242.669 8.5414 244.421 14.9966 244.421 14.9966C244.421 14.9966 247.333 10.4701 246.754 6.20597C246.754 6.20597 251.418 12.3332 252.024 17.6601C251.444 12.8711 253.183 7.80663 254.936 3.22761C255.605 9.0201 257.602 14.582 260.773 19.4838C258.441 14.6817 260.773 9.87969 262.512 6.95384C262.512 6.95384 263.105 13.619 265.424 15.7445C264.844 11.2179 266.017 4.02796 270.088 0C269.368 5.97332 269.766 12.0278 271.261 17.8569C272.82 16.1527 273.823 14.0168 274.136 11.7322C274.449 9.44771 274.057 7.12239 273.013 5.0645C275.909 7.38729 278.174 10.3961 279.601 13.8158C280.106 10.454 281.427 7.26562 283.448 4.52656C284.028 8.46268 285.78 14.9179 285.78 14.9179C285.78 14.9179 288.692 10.3914 288.113 6.12725C288.113 6.12725 292.777 12.2545 293.383 17.5813C292.803 12.7924 294.556 7.72791 296.308 3.14889C296.978 8.93913 298.97 14.4998 302.132 19.4051C299.799 14.603 302.132 9.80097 303.884 6.87512C303.884 6.87512 304.464 13.5403 306.796 15.6658C306.216 11.1392 309.708 6.61271 313.792 2.61099C313.213 6.33718 310.88 12.202 312.633 17.8044C312.633 17.6863 313.212 12.8974 317.903 6.6127C317.152 10.5488 318.825 13.9864 320.815 17.6863C320.639 12.9493 322.079 8.29263 324.899 4.47406C325.479 8.41019 327.232 14.8654 327.232 14.8654C327.232 14.8654 330.143 10.3389 329.564 6.07475C329.564 6.07475 334.228 12.202 334.834 17.5289C334.254 12.7399 335.994 7.67546 337.746 3.09644C338.415 8.88893 340.412 14.4508 343.583 19.3526C341.251 14.5505 343.583 9.74848 345.322 6.82263C345.322 6.82263 345.915 13.4878 348.247 15.6133C347.89 13.0617 348.124 10.4624 348.933 8.01511C349.741 5.56782 351.102 3.33763 352.911 1.49575C352.184 6.93662 352.579 12.468 354.071 17.7519C355.63 16.0477 356.633 13.9118 356.946 11.6273C357.259 9.34272 356.867 7.01741 355.823 4.95951C361.093 8.68571 364.572 17.4764 359.591 24.0366L-210.619 24.7976Z" fill="#E2E7D6"/>
<path d="M911.381 24.7976H909.879C909.879 24.7976 906.572 13.842 912.791 5.18258C913.37 9.1187 915.123 15.5739 915.123 15.5739C915.123 15.5739 918.034 11.0474 917.455 6.78327C917.455 6.78327 922.119 12.9105 922.725 18.2374C922.145 13.4484 923.898 8.38393 925.65 3.80491C926.32 9.59515 928.312 15.1559 931.474 20.0611C929.142 15.259 931.474 10.457 933.226 7.53114C933.226 7.53114 933.806 14.1963 936.138 16.3218C935.558 11.7952 936.718 8.33148 940.802 4.32976C940.094 9.06701 940.495 13.9033 941.975 18.4604C941.975 18.3423 942.555 13.5534 947.245 7.26872C946.494 11.2048 948.168 14.6424 950.157 18.3423C949.982 13.6054 951.421 8.94865 954.242 5.13008C954.821 9.06621 956.574 15.5215 956.574 15.5215C956.574 15.5215 959.486 10.9949 958.906 6.73078C958.906 6.73078 963.57 12.858 964.176 18.1849C963.597 13.396 965.349 8.33148 967.088 3.75246C967.681 9.07934 970 16.0069 972.925 20.0086C970.593 15.2066 972.925 10.4045 974.664 7.47865C974.664 7.47865 975.257 14.1438 977.589 16.2693C976.996 11.7428 978.169 4.55277 982.254 0.524808C981.522 6.49711 981.915 12.553 983.413 18.3817C984.973 16.6775 985.975 14.5416 986.288 12.2571C986.601 9.97252 986.21 7.6472 985.165 5.58931C988.062 7.9121 990.327 10.9209 991.753 14.3406C992.265 10.9805 993.585 7.79353 995.601 5.05136C996.194 8.98749 997.933 15.4427 997.933 15.4427C997.933 15.4427 1000.86 10.9162 1000.26 6.65206C1000.26 6.65206 1004.93 12.7793 1005.54 18.1062C1004.94 13.3172 1006.69 8.25276 1008.45 3.67374C1009.12 9.46398 1011.11 15.0247 1014.27 19.9299C1011.94 15.1278 1014.27 10.3258 1016.02 7.39993C1016.02 7.39993 1016.6 14.0651 1018.94 16.1906C1018.36 11.664 1021.85 7.13752 1025.93 3.1358C1025.35 6.86199 1023.02 12.7268 1024.77 18.3292C1024.77 18.2111 1025.35 13.4222 1030.04 7.1375C1029.29 11.0736 1030.96 14.5112 1032.95 18.2111C1032.78 13.4742 1034.22 8.81744 1037.04 4.99887C1037.62 8.93499 1039.37 15.3903 1039.37 15.3903C1039.37 15.3903 1042.28 10.8637 1041.7 6.59956C1041.7 6.59956 1046.37 12.7268 1046.97 18.0537C1046.39 13.2647 1048.15 8.20027 1049.89 3.62125C1050.57 9.41098 1052.56 14.9702 1055.72 19.8774C1053.39 15.0753 1055.72 10.2733 1057.47 7.34744C1057.47 7.34744 1058.05 14.0126 1060.39 16.1381C1060.03 13.5866 1060.27 10.9881 1061.08 8.54132C1061.88 6.09451 1063.24 3.86413 1065.05 2.02055C1064.34 7.46182 1064.73 12.9906 1066.21 18.2767C1067.77 16.5744 1068.78 14.4382 1069.09 12.1528C1069.4 9.86745 1069.01 7.54132 1067.96 5.48432C1070.48 7.27255 1072.81 9.32206 1074.89 11.5984C1075.59 9.20933 1076.69 6.95852 1078.16 4.94642C1078.75 8.88254 1080.49 15.3378 1080.49 15.3378C1080.49 15.3378 1083.42 10.8112 1082.82 6.54711C1082.82 6.54711 1087.49 12.6743 1088.1 18.0012C1087.5 13.2123 1089.25 8.14777 1091.01 3.56875C1091.68 9.35899 1093.67 14.9197 1096.83 19.825C1094.5 15.0229 1096.83 10.2208 1098.58 7.29494C1098.58 7.29494 1099.16 13.9601 1101.49 16.0856C1100.92 11.5591 1102.09 8.09528 1106.16 4.09356C1105.45 8.83081 1105.85 13.6671 1107.33 18.2243C1107.33 18.1062 1107.91 13.3172 1112.6 7.03256C1112 10.1421 1112.96 13.0023 1114.38 15.9282C1114.65 11.9425 1116.05 8.11551 1118.43 4.89393C1119.02 8.83005 1120.76 15.2853 1120.76 15.2853C1120.76 15.2853 1123.68 10.7587 1123.09 6.49462C1123.09 6.49462 1127.75 12.6218 1128.36 17.9487C1127.77 13.1598 1129.52 8.09528 1131.27 3.51626C1131.94 9.3065 1133.93 14.8672 1137.1 19.7725C1134.76 14.9704 1137.1 10.1683 1138.85 7.24249C1138.85 7.24249 1139.43 13.9076 1141.76 16.0331C1141.18 11.5066 1142.35 8.04283 1146.42 4.04111C1145.72 8.77836 1146.12 13.6146 1147.6 18.1718C1147.6 18.0537 1148.18 13.2647 1152.87 6.98007C1152.2 10.4701 1153.47 13.6452 1155.19 16.9385C1155.26 12.5803 1156.69 8.35237 1159.28 4.84143C1159.86 8.77756 1161.62 15.2328 1161.62 15.2328C1161.62 15.2328 1164.53 10.7063 1163.95 6.44212C1163.95 6.44212 1168.61 12.5694 1169.22 17.8963C1168.64 13.1073 1170.38 8.04283 1172.13 3.46381C1172.8 9.2563 1174.8 14.8182 1177.97 19.72C1175.64 14.9179 1177.97 10.1158 1179.71 7.19C1179.71 7.19 1180.3 13.8551 1182.63 15.9806C1182.04 11.4541 1183.21 7.99034 1187.3 3.98862C1186.58 8.7246 1186.97 13.5626 1188.46 18.1193C1190.02 16.4151 1191.02 14.2792 1191.33 11.9946C1191.64 9.71009 1191.25 7.38478 1190.21 5.32688C1192.87 7.42526 1195 10.1232 1196.41 13.1991C1197.02 10.1678 1198.28 7.30552 1200.12 4.81521C1200.7 8.75133 1202.45 15.2065 1202.45 15.2065C1202.45 15.2065 1205.36 10.68 1204.78 6.4159C1204.78 6.4159 1209.44 12.5431 1210.05 17.87C1209.47 13.081 1211.22 8.01656 1212.98 3.43754C1213.65 9.22778 1215.64 14.7885 1218.8 19.6937C1216.47 14.8917 1218.8 10.0896 1220.55 7.16373C1220.55 7.16373 1221.13 13.8289 1223.46 15.9544C1223.11 13.4029 1223.35 10.8045 1224.15 8.35765C1224.96 5.91085 1226.32 3.68042 1228.13 1.83685C1227.41 7.27812 1227.81 12.8069 1229.29 18.0931C1229.29 17.975 1229.88 13.186 1234.56 6.90135C1233.87 10.3914 1235.16 13.5665 1236.88 16.8597C1236.94 12.503 1238.37 8.27523 1240.96 4.76271C1241.55 8.69884 1243.29 15.1541 1243.29 15.1541C1243.29 15.1541 1246.22 10.6275 1245.63 6.36341C1245.63 6.36341 1250.29 12.4906 1250.9 17.8175C1250.3 13.0286 1252.06 7.96411 1253.81 3.38509C1254.48 9.17533 1256.47 14.736 1259.63 19.6413C1257.3 14.8392 1259.63 10.0371 1261.38 7.11128C1261.38 7.11128 1261.96 13.7764 1264.3 15.9019C1263.95 13.5125 1264.2 11.076 1265.01 8.80198C1265.82 6.52797 1267.18 4.48448 1268.96 2.84715C1268.25 7.93663 1268.65 13.1192 1270.13 18.0406C1270.13 17.9225 1270.71 13.1335 1275.4 6.84885C1274.73 10.3389 1276.01 13.514 1277.72 16.8072C1277.79 12.4482 1279.22 8.21871 1281.82 4.71022C1282.4 8.64634 1284.15 15.1016 1284.15 15.1016C1284.15 15.1016 1287.06 10.575 1286.48 6.31091C1286.48 6.31091 1291.15 12.4382 1291.75 17.765C1291.17 12.9761 1292.91 7.91162 1294.67 3.33259C1295.34 9.12509 1297.33 14.687 1300.5 19.5888C1298.17 14.7867 1300.5 9.98464 1302.24 7.05878C1302.24 7.05878 1302.83 13.724 1305.17 15.8495C1304.57 11.3229 1305.75 4.13295 1309.83 0.104986C1309.1 6.07729 1309.49 12.1331 1310.99 17.9618C1312.55 16.2576 1313.55 14.1217 1313.87 11.8372C1314.18 9.55265 1313.79 7.22734 1312.74 5.16944C1315.41 7.26782 1317.53 9.96577 1318.95 13.0417C1319.55 10.0104 1320.81 7.14808 1322.65 4.65777C1323.23 8.59389 1324.98 15.0491 1324.98 15.0491C1324.98 15.0491 1327.9 10.5226 1327.32 6.25846C1327.32 6.25846 1331.98 12.3857 1332.59 17.7125C1332.01 12.9236 1333.76 7.85912 1335.5 3.2801C1336.18 9.06984 1338.17 14.6291 1341.33 19.5363C1339 14.7342 1341.33 9.93214 1343.09 7.00629C1343.09 7.00629 1343.67 13.6715 1346 15.797C1345.42 11.2704 1346.58 7.80663 1350.66 3.80491C1349.96 8.54134 1350.35 13.3763 1351.82 17.9356C1351.82 17.8175 1352.42 13.0286 1357.09 6.74391C1356.34 10.68 1358.02 14.1176 1359.99 17.8175C1359.83 13.0801 1361.27 8.4259 1364.09 4.60528C1364.67 8.5414 1366.42 14.9966 1366.42 14.9966C1366.42 14.9966 1369.33 10.4701 1368.75 6.20597C1368.75 6.20597 1373.42 12.3332 1374.02 17.6601C1373.44 12.8711 1375.18 7.80663 1376.94 3.22761C1377.6 9.0201 1379.6 14.582 1382.77 19.4838C1380.44 14.6817 1382.77 9.87969 1384.51 6.95384C1384.51 6.95384 1385.1 13.619 1387.42 15.7445C1386.84 11.2179 1388.02 4.02796 1392.09 0C1391.37 5.97332 1391.77 12.0278 1393.26 17.8569C1394.82 16.1527 1395.82 14.0168 1396.14 11.7322C1396.45 9.44771 1396.06 7.12239 1395.01 5.0645C1397.91 7.38729 1400.17 10.3961 1401.6 13.8158C1402.11 10.454 1403.43 7.26562 1405.45 4.52656C1406.03 8.46268 1407.78 14.9179 1407.78 14.9179C1407.78 14.9179 1410.69 10.3914 1410.11 6.12725C1410.11 6.12725 1414.78 12.2545 1415.38 17.5813C1414.8 12.7924 1416.56 7.72791 1418.31 3.14889C1418.98 8.93913 1420.97 14.4998 1424.13 19.4051C1421.8 14.603 1424.13 9.80097 1425.88 6.87512C1425.88 6.87512 1426.46 13.5403 1428.8 15.6658C1428.22 11.1392 1431.71 6.61271 1435.79 2.61099C1435.21 6.33718 1432.88 12.202 1434.63 17.8044C1434.63 17.6863 1435.21 12.8974 1439.9 6.6127C1439.15 10.5488 1440.83 13.9864 1442.82 17.6863C1442.64 12.9493 1444.08 8.29263 1446.9 4.47406C1447.48 8.41019 1449.23 14.8654 1449.23 14.8654C1449.23 14.8654 1452.14 10.3389 1451.56 6.07475C1451.56 6.07475 1456.23 12.202 1456.83 17.5289C1456.25 12.7399 1457.99 7.67546 1459.75 3.09644C1460.42 8.88893 1462.41 14.4508 1465.58 19.3526C1463.25 14.5505 1465.58 9.74848 1467.32 6.82263C1467.32 6.82263 1467.92 13.4878 1470.25 15.6133C1469.89 13.0617 1470.12 10.4624 1470.93 8.01511C1471.74 5.56782 1473.1 3.33763 1474.91 1.49575C1474.18 6.93662 1474.58 12.468 1476.07 17.7519C1477.63 16.0477 1478.63 13.9118 1478.95 11.6273C1479.26 9.34272 1478.87 7.01741 1477.82 4.95951C1483.09 8.68571 1486.57 17.4764 1481.59 24.0366L911.381 24.7976Z" fill="#E2E7D6"/>
</svg>
