<svg width="25" height="19" viewBox="0 0 25 19" fill="none" xmlns="http://www.w3.org/2000/svg">
<path d="M25 1.16326V6.23286C25 11.9901 20.4677 16.6735 14.8962 16.6735H13.4529C13.4529 15.4536 13.4796 14.805 13.3163 13.7886L19.2663 7.60242C19.7046 7.1462 19.7023 6.40947 19.2616 5.95658C18.8204 5.5037 18.1075 5.50612 17.6692 5.96204L12.5808 11.2534C11.8842 9.6348 10.8027 8.23283 9.458 7.17104C10.7878 3.01055 14.5878 0 19.0538 0H23.8743C24.4958 0 25 0.521046 25 1.16326Z" fill="#97B545"/>
<path d="M3.36316 7.36735H1.12574C0.503946 7.36735 0 7.88809 0 8.53061V10.8571C0 15.3472 3.51619 19 7.83828 19H8.95024V18.3166L4.80229 14.0037C4.36401 13.5481 4.36636 12.8114 4.80727 12.3585C5.24819 11.9059 5.96116 11.908 6.39915 12.3636L10.8743 17.0167C11.0839 17.2348 11.2017 17.5296 11.2017 17.8367V15.5102C11.2017 11.0201 7.68554 7.36735 3.36316 7.36735Z" fill="#97B545"/>
</svg>
