<svg width="20" height="21" viewBox="0 0 20 21" fill="none" xmlns="http://www.w3.org/2000/svg">
<path d="M13.0635 4.06836C15.4546 3.43319 17.524 3.58267 18.1924 3.6582C18.8152 4.82693 21.6852 10.8628 18.1211 16.8203C16.5978 19.3673 14.6593 20.4149 12.8535 20.7471C11.2538 21.0412 9.74969 20.7747 8.71875 20.4746C9.83148 20.1159 11.4376 19.4179 12.7979 18.1143C14.3309 16.645 15.546 14.4141 15.4014 11.0645C15.2764 8.17543 14.2933 5.8627 13.0635 4.06836ZM7.27441 0.141602C8.43644 0.761811 14.1128 4.14476 14.4141 11.1084C14.5577 14.4283 13.2549 16.4973 11.7236 17.7832C10.2781 18.9971 8.62232 19.5153 7.76855 19.7168V15.9316L11.3027 12.8447L11.3037 12.8457C11.5104 12.6658 11.5329 12.3498 11.3564 12.1406C11.2014 11.9567 10.9429 11.9152 10.7422 12.0283L10.6602 12.0869L7.76855 14.6104V10.8926L10.0195 8.92773C10.2002 8.77026 10.2399 8.50946 10.1289 8.30664L10.0723 8.22363C9.89511 8.01285 9.58191 7.98892 9.375 8.16895V8.16992L7.76855 9.57129V5.66699C7.76855 5.39301 7.55043 5.16612 7.27539 5.16602C7.00026 5.16602 6.78125 5.39294 6.78125 5.66699V9.57129L5.1748 8.16992C4.96779 7.98892 4.65473 8.01303 4.47754 8.22363C4.32293 8.40672 4.3217 8.67097 4.46191 8.85449L4.53125 8.92773L6.78125 10.8916V14.6104L3.89062 12.0869C3.68377 11.906 3.37064 11.9305 3.19336 12.1406C3.01624 12.35 3.03955 12.6659 3.24609 12.8457V12.8447L6.78125 15.9307V19.7168C5.9273 19.5152 4.27144 18.9969 2.82617 17.7832C1.29501 16.4973 -0.0078371 14.4281 0.135742 11.1084C0.436508 4.14715 6.10937 0.76348 7.27441 0.141602Z" fill="#BCD339" stroke="#0F3714" stroke-width="0.25"/>
</svg>
