<svg width="33" height="41" viewBox="0 0 33 41" fill="none" xmlns="http://www.w3.org/2000/svg">
<path d="M29.751 1.05461C27.9129 0.979756 26.0782 1.27035 24.3536 1.90951C22.629 2.54866 21.0489 3.52362 19.7052 4.77771C17.9722 6.48543 16.7546 8.64471 16.1912 11.0095C15.6844 8.33262 14.3883 5.86776 12.469 3.93082C9.88612 1.44652 6.45022 0.0404737 2.86345 0C2.57138 0.00573253 2.29238 0.12194 2.08286 0.325127C1.87335 0.528315 1.74894 0.803325 1.7348 1.09456C1.58452 2.87648 1.79015 4.67044 2.33978 6.37244C2.88941 8.07443 3.77209 9.65058 4.93665 11.0095C6.21308 12.4279 7.77438 13.5621 9.51898 14.3385C11.2636 15.1148 13.1524 15.5159 15.0625 15.5156C15.3747 15.5156 14.9264 20.1255 14.8944 20.493C14.7984 21.5956 14.6703 22.6901 14.6543 23.7847C14.6383 24.8792 14.5742 26.7328 16.0311 26.9245C16.3392 26.9517 16.6482 26.8834 16.916 26.729C17.1839 26.5746 17.3975 26.3416 17.528 26.0617C18.0803 24.9272 17.8001 23.4651 17.7281 22.2587C17.7281 21.8033 17.1037 15.5395 17.4479 15.5475C20.4539 15.5578 23.3765 14.562 25.7487 12.7192C30.1113 9.24383 30.6476 4.04268 30.6796 1.9734C30.6828 1.85522 30.6625 1.73758 30.6198 1.62728C30.5772 1.51698 30.5131 1.41621 30.4312 1.33077C30.3494 1.24534 30.2514 1.17695 30.1428 1.12955C30.0343 1.08215 29.9175 1.05668 29.7991 1.05461H29.751ZM15.1346 13.4143C12.3582 10.3896 9.33541 7.59972 6.09733 5.07332C6.08498 5.0614 6.07516 5.04712 6.06846 5.03134C6.06175 5.01555 6.0583 4.99858 6.0583 4.98144C6.0583 4.96429 6.06175 4.94733 6.06846 4.93154C6.07516 4.91576 6.08498 4.90148 6.09733 4.88956C6.1168 4.87834 6.13888 4.87243 6.16136 4.87243C6.18385 4.87243 6.20593 4.87834 6.2254 4.88956C12.8773 7.23048 14.8544 11.8084 15.3507 13.3264C15.3651 13.3541 15.3681 13.3862 15.3591 13.4161C15.3501 13.4459 15.3299 13.4711 15.3027 13.4862C15.2871 13.494 15.27 13.4982 15.2526 13.4987C15.2352 13.4992 15.218 13.4959 15.202 13.4891C15.186 13.4822 15.1717 13.472 15.16 13.4591C15.1484 13.4462 15.1397 13.4309 15.1346 13.4143Z" fill="#97B545"/>
<path d="M32.5527 20.1734L31.9523 24.1202C31.9033 24.5085 31.7132 24.8654 31.4182 25.1231C31.1231 25.3808 30.7435 25.5215 30.3514 25.5184H29.9271C29.9271 25.5184 28.5584 33.1004 27.8379 36.1284C27.1175 39.1564 26.0289 40.259 23.0352 40.6824C18.5465 41.1059 14.0279 41.1059 9.53932 40.6824C6.54559 40.259 5.44095 39.1644 4.73654 36.1284C4.03213 33.0924 2.65533 25.5024 2.65533 25.5024H2.22308C1.8338 25.4955 1.45953 25.3514 1.16653 25.0955C0.873519 24.8396 0.68068 24.4884 0.622152 24.1043L0.0218036 20.1575C-0.0175696 19.9218 -0.00348932 19.6803 0.0630049 19.4508C0.129499 19.2212 0.246714 19.0095 0.406026 18.8312C0.569161 18.664 0.764737 18.5317 0.98081 18.4424C1.19688 18.3531 1.42892 18.3087 1.66275 18.3119C5.09675 17.9524 7.88236 17.6967 11.8367 17.6008C11.9334 17.5987 12.0296 17.6156 12.1197 17.6506C12.2099 17.6856 12.2923 17.738 12.3621 17.8048C12.432 17.8715 12.488 17.9514 12.527 18.0398C12.5659 18.1282 12.587 18.2233 12.5891 18.3199V19.1188C12.5923 19.2615 12.5673 19.4035 12.5155 19.5365C12.4637 19.6695 12.3862 19.7911 12.2873 19.8942C12.1884 19.9974 12.0702 20.08 11.9393 20.1375C11.8084 20.195 11.6674 20.2262 11.5245 20.2294C11.338 20.2307 11.1539 20.1868 10.9882 20.1015C10.5482 19.9268 10.0766 19.8451 9.60336 19.8618C7.45011 19.8618 6.72169 22.5463 6.78573 25.3426C6.83136 27.2819 7.29263 29.1889 8.13851 30.9353C9.20426 33.2842 10.7534 35.383 12.6851 37.0951C13.4488 37.8406 14.3829 38.3891 15.4067 38.693C16.0679 38.8152 16.7483 38.7852 17.3961 38.6052C18.044 38.4252 18.6421 38.1 19.1449 37.6544C20.1745 36.8171 21.1135 35.8746 21.9465 34.8421C23.3944 33.0242 24.4812 30.947 25.1484 28.7222C25.5074 27.6461 25.7096 26.5241 25.7487 25.3906C26.0609 21.6115 24.8362 19.8938 22.6349 19.8938C22.1643 19.877 21.6953 19.9587 21.2581 20.1335C21.1246 20.185 20.9823 20.2098 20.8392 20.2064C20.6961 20.2029 20.5551 20.1714 20.4242 20.1135C20.2934 20.0556 20.1752 19.9725 20.0766 19.869C19.9779 19.7655 19.9007 19.6436 19.8493 19.5103C19.8023 19.3962 19.7779 19.2741 19.7773 19.1508V18.3119C19.7751 18.2151 19.7924 18.1188 19.828 18.0287C19.8637 17.9387 19.917 17.8566 19.9849 17.7874C20.0527 17.7182 20.1337 17.6632 20.2232 17.6257C20.3126 17.5882 20.4087 17.5688 20.5057 17.5689C24.508 17.6647 27.5418 17.9364 30.9838 18.2959C31.2008 18.3071 31.4134 18.3612 31.6093 18.4551C31.8052 18.5489 31.9805 18.6807 32.125 18.8428C32.2695 19.0048 32.3802 19.1938 32.4509 19.399C32.5216 19.6041 32.5507 19.8212 32.5367 20.0376C32.5456 20.0824 32.5509 20.1278 32.5527 20.1734Z" fill="#97B545"/>
</svg>
